<svg width="114" height="48" viewBox="0 0 114 48" fill="none" xmlns="http://www.w3.org/2000/svg">
<path d="M44.117 29.204C43.2897 29.204 42.553 29.017 41.907 28.643C41.261 28.2577 40.751 27.7307 40.377 27.062C40.0143 26.3933 39.833 25.617 39.833 24.733C39.833 23.8377 40.0143 23.0557 40.377 22.387C40.751 21.707 41.261 21.18 41.907 20.806C42.553 20.4207 43.2897 20.228 44.117 20.228C45.1597 20.228 46.0323 20.5 46.735 21.044C47.4377 21.588 47.8853 22.3247 48.078 23.254H46.31C46.1967 22.7553 45.936 22.37 45.528 22.098C45.1313 21.826 44.6553 21.69 44.1 21.69C43.6467 21.69 43.2273 21.809 42.842 22.047C42.4567 22.2737 42.145 22.6137 41.907 23.067C41.6803 23.509 41.567 24.0587 41.567 24.716C41.567 25.2033 41.635 25.6397 41.771 26.025C41.907 26.399 42.0883 26.7163 42.315 26.977C42.553 27.2377 42.825 27.436 43.131 27.572C43.437 27.6967 43.76 27.759 44.1 27.759C44.474 27.759 44.8083 27.7023 45.103 27.589C45.409 27.4643 45.664 27.283 45.868 27.045C46.0833 26.807 46.2307 26.5237 46.31 26.195H48.078C47.8853 27.1017 47.4377 27.8327 46.735 28.388C46.0323 28.932 45.1597 29.204 44.117 29.204ZM52.3961 29.204C51.6935 29.204 51.1098 29.085 50.6451 28.847C50.1805 28.609 49.8348 28.2917 49.6081 27.895C49.3815 27.487 49.2681 27.0507 49.2681 26.586C49.2681 26.0193 49.4155 25.5377 49.7101 25.141C50.0048 24.733 50.4241 24.4213 50.9681 24.206C51.5121 23.9907 52.1638 23.883 52.9231 23.883H55.1501C55.1501 23.3843 55.0765 22.9707 54.9291 22.642C54.7818 22.3133 54.5608 22.0697 54.2661 21.911C53.9828 21.741 53.6201 21.656 53.1781 21.656C52.6681 21.656 52.2318 21.7807 51.8691 22.03C51.5065 22.268 51.2798 22.625 51.1891 23.101H49.4891C49.5571 22.5003 49.7611 21.9903 50.1011 21.571C50.4525 21.1403 50.9001 20.8117 51.4441 20.585C51.9881 20.347 52.5661 20.228 53.1781 20.228C53.9828 20.228 54.6571 20.3697 55.2011 20.653C55.7451 20.9363 56.1531 21.3387 56.4251 21.86C56.7085 22.37 56.8501 22.982 56.8501 23.696V29H55.3711L55.2351 27.555C55.1105 27.7817 54.9631 27.997 54.7931 28.201C54.6231 28.405 54.4191 28.5807 54.1811 28.728C53.9545 28.8753 53.6881 28.9887 53.3821 29.068C53.0875 29.1587 52.7588 29.204 52.3961 29.204ZM52.7191 27.827C53.0818 27.827 53.4105 27.7533 53.7051 27.606C53.9998 27.4587 54.2491 27.2603 54.4531 27.011C54.6685 26.7503 54.8271 26.4613 54.9291 26.144C55.0425 25.8153 55.1048 25.481 55.1161 25.141V25.09H53.0931C52.6058 25.09 52.2091 25.1523 51.9031 25.277C51.6085 25.3903 51.3931 25.549 51.2571 25.753C51.1211 25.957 51.0531 26.195 51.0531 26.467C51.0531 26.7503 51.1155 26.994 51.2401 27.198C51.3761 27.3907 51.5688 27.5437 51.8181 27.657C52.0675 27.7703 52.3678 27.827 52.7191 27.827ZM62.318 29.204C61.502 29.204 60.7824 29.0113 60.159 28.626C59.5357 28.2293 59.0484 27.6967 58.697 27.028C58.357 26.348 58.187 25.5773 58.187 24.716C58.187 23.8433 58.357 23.0727 58.697 22.404C59.0484 21.7353 59.5357 21.2083 60.159 20.823C60.7937 20.4263 61.519 20.228 62.335 20.228C63.0037 20.228 63.593 20.364 64.103 20.636C64.613 20.8967 65.0097 21.2707 65.293 21.758V16.76H66.993V29H65.463L65.293 27.674C65.123 27.9347 64.902 28.184 64.63 28.422C64.358 28.6487 64.0294 28.8357 63.644 28.983C63.2587 29.1303 62.8167 29.204 62.318 29.204ZM62.59 27.725C63.1227 27.725 63.593 27.6003 64.001 27.351C64.409 27.1017 64.7207 26.7503 64.936 26.297C65.1627 25.8437 65.276 25.3167 65.276 24.716C65.276 24.1153 65.1627 23.594 64.936 23.152C64.7207 22.6987 64.409 22.3473 64.001 22.098C63.593 21.8373 63.1227 21.707 62.59 21.707C62.08 21.707 61.621 21.8373 61.213 22.098C60.805 22.3473 60.4877 22.6987 60.261 23.152C60.0344 23.594 59.921 24.1153 59.921 24.716C59.921 25.3167 60.0344 25.8437 60.261 26.297C60.4877 26.7503 60.805 27.1017 61.213 27.351C61.621 27.6003 62.08 27.725 62.59 27.725ZM72.6836 29.204C71.8676 29.204 71.1423 29.017 70.5076 28.643C69.873 28.269 69.3743 27.7477 69.0116 27.079C68.6603 26.4103 68.4846 25.634 68.4846 24.75C68.4846 23.8433 68.6603 23.0557 69.0116 22.387C69.3743 21.707 69.873 21.18 70.5076 20.806C71.1423 20.4207 71.879 20.228 72.7176 20.228C73.5563 20.228 74.276 20.415 74.8766 20.789C75.4773 21.163 75.942 21.6617 76.2706 22.285C76.5993 22.897 76.7636 23.577 76.7636 24.325C76.7636 24.4383 76.758 24.563 76.7466 24.699C76.7466 24.8237 76.741 24.9653 76.7296 25.124H69.7256V23.917H75.0636C75.0296 23.203 74.7916 22.6477 74.3496 22.251C73.9076 21.843 73.358 21.639 72.7006 21.639C72.236 21.639 71.811 21.7467 71.4256 21.962C71.0403 22.166 70.7286 22.472 70.4906 22.88C70.264 23.2767 70.1506 23.781 70.1506 24.393V24.869C70.1506 25.5037 70.264 26.042 70.4906 26.484C70.7286 26.9147 71.0403 27.2433 71.4256 27.47C71.811 27.6853 72.2303 27.793 72.6836 27.793C73.2276 27.793 73.6753 27.674 74.0266 27.436C74.378 27.198 74.6386 26.875 74.8086 26.467H76.5086C76.3613 26.9883 76.112 27.4587 75.7606 27.878C75.4093 28.286 74.973 28.609 74.4516 28.847C73.9416 29.085 73.3523 29.204 72.6836 29.204ZM78.1424 29V20.432H79.6724L79.7744 21.894C80.0464 21.384 80.4317 20.9817 80.9304 20.687C81.429 20.381 82.0014 20.228 82.6474 20.228C83.3274 20.228 83.911 20.364 84.3984 20.636C84.8857 20.908 85.2654 21.3217 85.5374 21.877C85.8094 22.421 85.9454 23.1067 85.9454 23.934V29H84.2454V24.104C84.2454 23.3107 84.0697 22.71 83.7184 22.302C83.367 21.894 82.857 21.69 82.1884 21.69C81.7464 21.69 81.3497 21.7977 80.9984 22.013C80.647 22.217 80.3637 22.523 80.1484 22.931C79.9444 23.339 79.8424 23.8377 79.8424 24.427V29H78.1424ZM91.5709 29.204C90.7436 29.204 90.0069 29.017 89.3609 28.643C88.7149 28.2577 88.2049 27.7307 87.8309 27.062C87.4682 26.3933 87.2869 25.617 87.2869 24.733C87.2869 23.8377 87.4682 23.0557 87.8309 22.387C88.2049 21.707 88.7149 21.18 89.3609 20.806C90.0069 20.4207 90.7436 20.228 91.5709 20.228C92.6136 20.228 93.4862 20.5 94.1889 21.044C94.8916 21.588 95.3392 22.3247 95.5319 23.254H93.7639C93.6506 22.7553 93.3899 22.37 92.9819 22.098C92.5852 21.826 92.1092 21.69 91.5539 21.69C91.1006 21.69 90.6812 21.809 90.2959 22.047C89.9106 22.2737 89.5989 22.6137 89.3609 23.067C89.1342 23.509 89.0209 24.0587 89.0209 24.716C89.0209 25.2033 89.0889 25.6397 89.2249 26.025C89.3609 26.399 89.5422 26.7163 89.7689 26.977C90.0069 27.2377 90.2789 27.436 90.5849 27.572C90.8909 27.6967 91.2139 27.759 91.5539 27.759C91.9279 27.759 92.2622 27.7023 92.5569 27.589C92.8629 27.4643 93.1179 27.283 93.3219 27.045C93.5372 26.807 93.6846 26.5237 93.7639 26.195H95.5319C95.3392 27.1017 94.8916 27.8327 94.1889 28.388C93.4862 28.932 92.6136 29.204 91.5709 29.204ZM100.887 29.204C100.071 29.204 99.3457 29.017 98.711 28.643C98.0764 28.269 97.5777 27.7477 97.215 27.079C96.8637 26.4103 96.688 25.634 96.688 24.75C96.688 23.8433 96.8637 23.0557 97.215 22.387C97.5777 21.707 98.0764 21.18 98.711 20.806C99.3457 20.4207 100.082 20.228 100.921 20.228C101.76 20.228 102.479 20.415 103.08 20.789C103.681 21.163 104.145 21.6617 104.474 22.285C104.803 22.897 104.967 23.577 104.967 24.325C104.967 24.4383 104.961 24.563 104.95 24.699C104.95 24.8237 104.944 24.9653 104.933 25.124H97.929V23.917H103.267C103.233 23.203 102.995 22.6477 102.553 22.251C102.111 21.843 101.561 21.639 100.904 21.639C100.439 21.639 100.014 21.7467 99.629 21.962C99.2437 22.166 98.932 22.472 98.694 22.88C98.4674 23.2767 98.354 23.781 98.354 24.393V24.869C98.354 25.5037 98.4674 26.042 98.694 26.484C98.932 26.9147 99.2437 27.2433 99.629 27.47C100.014 27.6853 100.434 27.793 100.887 27.793C101.431 27.793 101.879 27.674 102.23 27.436C102.581 27.198 102.842 26.875 103.012 26.467H104.712C104.565 26.9883 104.315 27.4587 103.964 27.878C103.613 28.286 103.176 28.609 102.655 28.847C102.145 29.085 101.556 29.204 100.887 29.204Z" fill="#5E6A64"/>
<path d="M9 34.2234C9 32.9198 10.0568 31.863 11.3604 31.863H29.0329C29.4749 31.863 29.8333 32.2214 29.8333 32.6635C29.8333 35.6108 27.4441 38 24.4968 38H12.7766C10.6909 38 9 36.3092 9 34.2234Z" fill="#5D7446"/>
<path d="M13.1667 26.9357C13.1667 25.6321 14.2234 24.5753 15.527 24.5753H33.1995C33.6416 24.5753 34 24.9337 34 25.3758C34 28.3231 31.6108 30.7123 28.6635 30.7123H16.9433C14.8575 30.7123 13.1667 29.0215 13.1667 26.9357Z" fill="#8AA260"/>
<path d="M9 19.6481C9 18.3445 10.0568 17.2877 11.3604 17.2877H28.6635C31.6108 17.2877 34 19.6769 34 22.6242C34 23.0663 33.6416 23.4247 33.1995 23.4247H12.7766C10.6908 23.4247 9 21.7338 9 19.6481Z" fill="#C4934A"/>
<path d="M13.1667 12.3604C13.1667 11.0568 14.2234 10 15.527 10H24.4968C27.4441 10 29.8333 12.3892 29.8333 15.3365C29.8333 15.7786 29.475 16.137 29.0329 16.137H16.9433C14.8575 16.137 13.1667 14.4461 13.1667 12.3604Z" fill="#E3B25D"/>
</svg>
