<svg width="32" height="32" viewBox="0 0 32 32" fill="none" xmlns="http://www.w3.org/2000/svg">
<path d="M3 26.2234C3 24.9198 4.05678 23.863 5.36038 23.863H23.0329C23.4749 23.863 23.8333 24.2214 23.8333 24.6635C23.8333 27.6108 21.4441 30 18.4968 30H6.77661C4.69085 30 3 28.3091 3 26.2234Z" fill="#5D7446"/>
<path d="M7.16667 18.9357C7.16667 17.6321 8.22345 16.5753 9.52705 16.5753H27.1995C27.6416 16.5753 28 16.9337 28 17.3758C28 20.3231 25.6108 22.7123 22.6635 22.7123H10.9433C8.85752 22.7123 7.16667 21.0215 7.16667 18.9357Z" fill="#8AA260"/>
<path d="M3 11.6481C3 10.3445 4.05678 9.28767 5.36038 9.28767H22.6635C25.6108 9.28767 28 11.6769 28 14.6242C28 15.0663 27.6416 15.4247 27.1995 15.4247H6.77661C4.69084 15.4247 3 13.7338 3 11.6481Z" fill="#C4934A"/>
<path d="M7.16667 4.36038C7.16667 3.05678 8.22345 2 9.52705 2H18.4968C21.4441 2 23.8333 4.38924 23.8333 7.33651C23.8333 7.7786 23.475 8.13699 23.0329 8.13699H10.9433C8.85751 8.13699 7.16667 6.44614 7.16667 4.36038Z" fill="#E3B25D"/>
</svg>
