<svg width="76" height="75" viewBox="0 0 76 75" fill="none" xmlns="http://www.w3.org/2000/svg">
<path d="M9.76712 60.204C8.93978 60.204 8.20312 60.017 7.55712 59.643C6.91112 59.2577 6.40112 58.7307 6.02712 58.062C5.66445 57.3933 5.48312 56.617 5.48312 55.733C5.48312 54.8377 5.66445 54.0557 6.02712 53.387C6.40112 52.707 6.91112 52.18 7.55712 51.806C8.20312 51.4207 8.93978 51.228 9.76712 51.228C10.8098 51.228 11.6824 51.5 12.3851 52.044C13.0878 52.588 13.5354 53.3247 13.7281 54.254H11.9601C11.8468 53.7553 11.5861 53.37 11.1781 53.098C10.7814 52.826 10.3054 52.69 9.75012 52.69C9.29678 52.69 8.87745 52.809 8.49212 53.047C8.10678 53.2737 7.79512 53.6137 7.55712 54.067C7.33045 54.509 7.21712 55.0587 7.21712 55.716C7.21712 56.2033 7.28512 56.6397 7.42112 57.025C7.55712 57.399 7.73845 57.7163 7.96512 57.977C8.20312 58.2377 8.47512 58.436 8.78112 58.572C9.08712 58.6967 9.41012 58.759 9.75012 58.759C10.1241 58.759 10.4584 58.7023 10.7531 58.589C11.0591 58.4643 11.3141 58.283 11.5181 58.045C11.7334 57.807 11.8808 57.5237 11.9601 57.195H13.7281C13.5354 58.1017 13.0878 58.8327 12.3851 59.388C11.6824 59.932 10.8098 60.204 9.76712 60.204ZM18.0462 60.204C17.3436 60.204 16.7599 60.085 16.2952 59.847C15.8306 59.609 15.4849 59.2917 15.2582 58.895C15.0316 58.487 14.9182 58.0507 14.9182 57.586C14.9182 57.0193 15.0656 56.5377 15.3602 56.141C15.6549 55.733 16.0742 55.4213 16.6182 55.206C17.1622 54.9907 17.8139 54.883 18.5732 54.883H20.8002C20.8002 54.3843 20.7266 53.9707 20.5792 53.642C20.4319 53.3133 20.2109 53.0697 19.9162 52.911C19.6329 52.741 19.2702 52.656 18.8282 52.656C18.3182 52.656 17.8819 52.7807 17.5192 53.03C17.1566 53.268 16.9299 53.625 16.8392 54.101H15.1392C15.2072 53.5003 15.4112 52.9903 15.7512 52.571C16.1026 52.1403 16.5502 51.8117 17.0942 51.585C17.6382 51.347 18.2162 51.228 18.8282 51.228C19.6329 51.228 20.3072 51.3697 20.8512 51.653C21.3952 51.9363 21.8032 52.3387 22.0752 52.86C22.3586 53.37 22.5002 53.982 22.5002 54.696V60H21.0212L20.8852 58.555C20.7606 58.7817 20.6132 58.997 20.4432 59.201C20.2732 59.405 20.0692 59.5807 19.8312 59.728C19.6046 59.8753 19.3382 59.9887 19.0322 60.068C18.7376 60.1587 18.4089 60.204 18.0462 60.204ZM18.3692 58.827C18.7319 58.827 19.0606 58.7533 19.3552 58.606C19.6499 58.4587 19.8992 58.2603 20.1032 58.011C20.3186 57.7503 20.4772 57.4613 20.5792 57.144C20.6926 56.8153 20.7549 56.481 20.7662 56.141V56.09H18.7432C18.2559 56.09 17.8592 56.1523 17.5532 56.277C17.2586 56.3903 17.0432 56.549 16.9072 56.753C16.7712 56.957 16.7032 57.195 16.7032 57.467C16.7032 57.7503 16.7656 57.994 16.8902 58.198C17.0262 58.3907 17.2189 58.5437 17.4682 58.657C17.7176 58.7703 18.0179 58.827 18.3692 58.827ZM27.9681 60.204C27.1521 60.204 26.4325 60.0113 25.8091 59.626C25.1858 59.2293 24.6985 58.6967 24.3471 58.028C24.0071 57.348 23.8371 56.5773 23.8371 55.716C23.8371 54.8433 24.0071 54.0727 24.3471 53.404C24.6985 52.7353 25.1858 52.2083 25.8091 51.823C26.4438 51.4263 27.1691 51.228 27.9851 51.228C28.6538 51.228 29.2431 51.364 29.7531 51.636C30.2631 51.8967 30.6598 52.2707 30.9431 52.758V47.76H32.6431V60H31.1131L30.9431 58.674C30.7731 58.9347 30.5521 59.184 30.2801 59.422C30.0081 59.6487 29.6795 59.8357 29.2941 59.983C28.9088 60.1303 28.4668 60.204 27.9681 60.204ZM28.2401 58.725C28.7728 58.725 29.2431 58.6003 29.6511 58.351C30.0591 58.1017 30.3708 57.7503 30.5861 57.297C30.8128 56.8437 30.9261 56.3167 30.9261 55.716C30.9261 55.1153 30.8128 54.594 30.5861 54.152C30.3708 53.6987 30.0591 53.3473 29.6511 53.098C29.2431 52.8373 28.7728 52.707 28.2401 52.707C27.7301 52.707 27.2711 52.8373 26.8631 53.098C26.4551 53.3473 26.1378 53.6987 25.9111 54.152C25.6845 54.594 25.5711 55.1153 25.5711 55.716C25.5711 56.3167 25.6845 56.8437 25.9111 57.297C26.1378 57.7503 26.4551 58.1017 26.8631 58.351C27.2711 58.6003 27.7301 58.725 28.2401 58.725ZM38.3338 60.204C37.5178 60.204 36.7924 60.017 36.1578 59.643C35.5231 59.269 35.0244 58.7477 34.6618 58.079C34.3104 57.4103 34.1348 56.634 34.1348 55.75C34.1348 54.8433 34.3104 54.0557 34.6618 53.387C35.0244 52.707 35.5231 52.18 36.1578 51.806C36.7924 51.4207 37.5291 51.228 38.3678 51.228C39.2064 51.228 39.9261 51.415 40.5268 51.789C41.1274 52.163 41.5921 52.6617 41.9208 53.285C42.2494 53.897 42.4138 54.577 42.4138 55.325C42.4138 55.4383 42.4081 55.563 42.3968 55.699C42.3968 55.8237 42.3911 55.9653 42.3798 56.124H35.3758V54.917H40.7138C40.6798 54.203 40.4418 53.6477 39.9998 53.251C39.5578 52.843 39.0081 52.639 38.3508 52.639C37.8861 52.639 37.4611 52.7467 37.0758 52.962C36.6904 53.166 36.3788 53.472 36.1408 53.88C35.9141 54.2767 35.8008 54.781 35.8008 55.393V55.869C35.8008 56.5037 35.9141 57.042 36.1408 57.484C36.3788 57.9147 36.6904 58.2433 37.0758 58.47C37.4611 58.6853 37.8804 58.793 38.3338 58.793C38.8778 58.793 39.3254 58.674 39.6768 58.436C40.0281 58.198 40.2888 57.875 40.4588 57.467H42.1588C42.0114 57.9883 41.7621 58.4587 41.4108 58.878C41.0594 59.286 40.6231 59.609 40.1018 59.847C39.5918 60.085 39.0024 60.204 38.3338 60.204ZM43.7925 60V51.432H45.3225L45.4245 52.894C45.6965 52.384 46.0818 51.9817 46.5805 51.687C47.0791 51.381 47.6515 51.228 48.2975 51.228C48.9775 51.228 49.5611 51.364 50.0485 51.636C50.5358 51.908 50.9155 52.3217 51.1875 52.877C51.4595 53.421 51.5955 54.1067 51.5955 54.934V60H49.8955V55.104C49.8955 54.3107 49.7198 53.71 49.3685 53.302C49.0171 52.894 48.5071 52.69 47.8385 52.69C47.3965 52.69 46.9998 52.7977 46.6485 53.013C46.2971 53.217 46.0138 53.523 45.7985 53.931C45.5945 54.339 45.4925 54.8377 45.4925 55.427V60H43.7925ZM57.221 60.204C56.3937 60.204 55.657 60.017 55.011 59.643C54.365 59.2577 53.855 58.7307 53.481 58.062C53.1184 57.3933 52.937 56.617 52.937 55.733C52.937 54.8377 53.1184 54.0557 53.481 53.387C53.855 52.707 54.365 52.18 55.011 51.806C55.657 51.4207 56.3937 51.228 57.221 51.228C58.2637 51.228 59.1364 51.5 59.839 52.044C60.5417 52.588 60.9894 53.3247 61.182 54.254H59.414C59.3007 53.7553 59.04 53.37 58.632 53.098C58.2354 52.826 57.7594 52.69 57.204 52.69C56.7507 52.69 56.3314 52.809 55.946 53.047C55.5607 53.2737 55.249 53.6137 55.011 54.067C54.7844 54.509 54.671 55.0587 54.671 55.716C54.671 56.2033 54.739 56.6397 54.875 57.025C55.011 57.399 55.1924 57.7163 55.419 57.977C55.657 58.2377 55.929 58.436 56.235 58.572C56.541 58.6967 56.864 58.759 57.204 58.759C57.578 58.759 57.9124 58.7023 58.207 58.589C58.513 58.4643 58.768 58.283 58.972 58.045C59.1874 57.807 59.3347 57.5237 59.414 57.195H61.182C60.9894 58.1017 60.5417 58.8327 59.839 59.388C59.1364 59.932 58.2637 60.204 57.221 60.204ZM66.5372 60.204C65.7212 60.204 64.9958 60.017 64.3612 59.643C63.7265 59.269 63.2278 58.7477 62.8652 58.079C62.5138 57.4103 62.3382 56.634 62.3382 55.75C62.3382 54.8433 62.5138 54.0557 62.8652 53.387C63.2278 52.707 63.7265 52.18 64.3612 51.806C64.9958 51.4207 65.7325 51.228 66.5712 51.228C67.4098 51.228 68.1295 51.415 68.7302 51.789C69.3308 52.163 69.7955 52.6617 70.1242 53.285C70.4528 53.897 70.6172 54.577 70.6172 55.325C70.6172 55.4383 70.6115 55.563 70.6002 55.699C70.6002 55.8237 70.5945 55.9653 70.5832 56.124H63.5792V54.917H68.9172C68.8832 54.203 68.6452 53.6477 68.2032 53.251C67.7612 52.843 67.2115 52.639 66.5542 52.639C66.0895 52.639 65.6645 52.7467 65.2792 52.962C64.8938 53.166 64.5822 53.472 64.3442 53.88C64.1175 54.2767 64.0042 54.781 64.0042 55.393V55.869C64.0042 56.5037 64.1175 57.042 64.3442 57.484C64.5822 57.9147 64.8938 58.2433 65.2792 58.47C65.6645 58.6853 66.0838 58.793 66.5372 58.793C67.0812 58.793 67.5288 58.674 67.8802 58.436C68.2315 58.198 68.4922 57.875 68.6622 57.467H70.3622C70.2148 57.9883 69.9655 58.4587 69.6142 58.878C69.2628 59.286 68.8265 59.609 68.3052 59.847C67.7952 60.085 67.2058 60.204 66.5372 60.204Z" fill="#5E6A64"/>
<path d="M25 35.2234C25 33.9198 26.0568 32.863 27.3604 32.863H45.0329C45.4749 32.863 45.8333 33.2214 45.8333 33.6635C45.8333 36.6108 43.4441 39 40.4968 39H28.7766C26.6909 39 25 37.3092 25 35.2234Z" fill="#5D7446"/>
<path d="M29.1667 27.9357C29.1667 26.6321 30.2234 25.5753 31.527 25.5753H49.1995C49.6416 25.5753 50 25.9337 50 26.3758C50 29.3231 47.6108 31.7123 44.6635 31.7123H32.9433C30.8575 31.7123 29.1667 30.0215 29.1667 27.9357Z" fill="#8AA260"/>
<path d="M25 20.6481C25 19.3445 26.0568 18.2877 27.3604 18.2877H44.6635C47.6108 18.2877 50 20.6769 50 23.6242C50 24.0663 49.6416 24.4247 49.1995 24.4247H28.7766C26.6908 24.4247 25 22.7338 25 20.6481Z" fill="#C4934A"/>
<path d="M29.1667 13.3604C29.1667 12.0568 30.2234 11 31.527 11H40.4968C43.4441 11 45.8333 13.3892 45.8333 16.3365C45.8333 16.7786 45.475 17.137 45.0329 17.137H32.9433C30.8575 17.137 29.1667 15.4461 29.1667 13.3604Z" fill="#E3B25D"/>
</svg>
